<?xml version="1.0" encoding="UTF-8" standalone="no"?>
<svg width="32px" height="24px" viewBox="0 0 32 24" version="1.1" xmlns="http://www.w3.org/2000/svg" xmlns:xlink="http://www.w3.org/1999/xlink">
    <!-- Generator: Sketch 44.1 (41455) - http://www.bohemiancoding.com/sketch -->
    <title>volume 1</title>
    <desc>Created with Sketch.</desc>
    <defs></defs>
    <g id="Page-2-Copy" stroke="none" stroke-width="1" fill="none" fill-rule="evenodd">
        <g id="244" stroke="#ffffff" transform="translate(0.000000, -4.000000)">
            <path d="M26,17.4142136 L21.790268,21.6239455 C21.4062659,22.0079477 20.7723399,22.0087086 20.3818157,21.6181843 C19.9885687,21.2249374 19.9904843,20.5953021 20.380013,20.2057734 L24.5857864,16 L20.3413431,11.7555567 C19.9493659,11.3635794 19.9526215,10.73367 20.3431458,10.3431458 C20.7363927,9.9498988 21.366588,9.95237443 21.7568076,10.342594 L22.787377,11.3731635 L26,14.5857864 L30.2444433,10.3413431 C30.6364206,9.94936585 31.26633,9.95262146 31.6568542,10.3431458 C32.0501012,10.7363927 32.0476256,11.366588 31.657406,11.7568076 L30.6268365,12.787377 L27.4142136,16 L31.6239455,20.209732 C32.0079477,20.5937341 32.0087086,21.2276601 31.6181843,21.6181843 C31.2249374,22.0114313 30.5953021,22.0095157 30.2057734,21.619987 L26,17.4142136 L26,17.4142136 Z" id="Rectangle-348" stroke="none" fill="#ffffff" fill-rule="evenodd"></path>
            <path d="M5.48917603,22 C5.55217314,22.0492379 5.61624045,22.0950527 5.68118391,22.1370864 L14.3188161,27.7276617 C15.2473083,28.3286141 16,27.9187626 16,26.815621 L16,5.18986777 C16,4.08520919 15.2493463,3.67556599 14.3188161,4.27785027 L5.68118391,9.86854489 C5.61877503,9.90893894 5.55716039,9.95286526 5.49651519,10 L1.99791312,10 C0.894496173,10 0,10.9019504 0,12.0085302 L0,19.9914698 C0,21.1007504 0.898260623,22 1.99791312,22 L5.48917603,22 L5.48917603,22 L5.48917603,22 Z M15.4055431,5.9568453 C15.0049958,6.21609895 14,5.66990151 14,5.18986777 L14,26.815621 C14,26.3334429 15.0034741,25.7884337 15.4055268,26.0486561 L6.76789462,20.4580808 C6.40692847,20.224451 6,19.4780451 6,19.0550566 L6,12.9505979 C6,12.5303144 6.40914716,11.7797493 6.76791096,11.5475399 L15.4055431,5.9568453 L15.4055431,5.9568453 Z M6,12 L4,10 L4,22 L6,20 L1.99791312,20 C2.00332451,20 2,12.0085302 2,12.0085302 C2,12.0028082 6,12 6,12 L6,12 Z" id="Rectangle-1162" stroke="none" fill="#ffffff" fill-rule="nonzero"></path>
        </g>
    </g>
</svg>