<svg width="34" height="39" viewBox="0 0 34 39" fill="none" xmlns="http://www.w3.org/2000/svg">
<path d="M30.9949 16.2915L6.24989 1.46903C5.72065 1.16343 5.12061 1.00172 4.50948 1.00001C3.89834 0.998301 3.29741 1.15664 2.76647 1.45928C2.23552 1.76192 1.79308 2.1983 1.48315 2.72502C1.17322 3.25174 1.0066 3.85043 0.999884 4.46153L0.999882 34.1065C1.0066 34.7176 1.17321 35.3163 1.48315 35.843C1.79307 36.3698 2.23552 36.8061 2.76646 37.1088C3.29741 37.4114 3.89834 37.5698 4.50947 37.5681C5.12061 37.5663 5.72064 37.4046 6.24988 37.099L30.9949 22.2765C31.5092 21.9646 31.9344 21.5253 32.2295 21.0011C32.5247 20.477 32.6797 19.8856 32.6797 19.284C32.6797 18.6825 32.5247 18.0911 32.2295 17.5669C31.9344 17.0428 31.5092 16.6035 30.9949 16.2915Z" fill="#A73962" stroke="#A73962" stroke-width="2" stroke-linecap="round" stroke-linejoin="round"/>
</svg>
