<svg width="363" height="45" viewBox="0 0 363 45" fill="none" xmlns="http://www.w3.org/2000/svg">
<path d="M31.558 31.642C31.558 24.612 27.784 20.986 16.906 18.322C10.986 16.842 8.914 15.584 8.914 12.846C8.914 10.108 12.17 8.036 16.314 8.036C20.828 8.036 23.048 10.404 25.046 11.588C26.6 12.55 27.636 12.772 29.042 12.254C30.448 11.736 31.188 10.256 31.188 8.702C31.188 7.962 30.892 7 30.152 6.26C29.486 5.594 24.528 0.783996 16.314 0.783996C7.434 0.783996 1.514 6.038 1.514 13.142C1.514 19.802 5.88 23.132 15.13 25.574C21.642 27.276 24.158 28.682 24.158 31.79C24.158 35.564 20.68 37.044 16.314 37.044C13.206 37.044 9.876 35.712 6.916 32.974C5.954 32.086 4.696 31.272 3.438 31.42C1.588 31.716 0.0340001 33.64 0.256 35.786C0.404 36.748 1.144 38.672 5.066 41.188C7.212 42.52 11.578 44.296 16.314 44.296C26.008 44.296 31.558 39.412 31.558 31.642ZM80.5217 41.78L92.4357 5.668C93.1017 3.744 92.0657 1.598 90.1417 1.006C88.2177 0.339998 86.1457 1.376 85.4797 3.3L77.0437 28.904L68.6817 3.3C68.1637 1.82 66.8317 0.783996 65.2037 0.783996C63.5757 0.783996 62.2437 1.82 61.7257 3.3L53.3637 28.904L44.9277 3.3C44.2617 1.376 42.1897 0.339998 40.2657 1.006C38.3417 1.598 37.3057 3.744 37.9717 5.668L49.8857 41.78C50.4037 43.26 51.7357 44.296 53.3637 44.296C54.9917 44.296 56.3977 43.26 56.8417 41.78L65.2037 16.472L73.5657 41.78C74.0097 43.26 75.4157 44.296 77.0437 44.296C78.6717 44.296 80.0037 43.26 80.5217 41.78ZM116.226 3.078C115.634 1.672 114.302 0.783996 112.822 0.783996C111.342 0.783996 110.01 1.672 109.418 3.078L94.4696 39.19C93.3596 41.928 95.4316 44.296 97.8736 44.296C99.3536 44.296 100.686 43.408 101.278 42.002L104.164 35.12H121.48L124.366 42.002C125.106 43.926 127.326 44.814 129.176 44C131.1 43.26 131.914 41.04 131.174 39.19L116.226 3.078ZM112.822 14.104L118.372 27.72H107.272L112.822 14.104ZM173.248 44.074C174.728 43.556 175.69 42.15 175.69 40.596V4.484C175.69 2.412 174.062 0.783996 171.99 0.783996C169.918 0.783996 168.29 2.412 168.29 4.484V30.384L145.202 2.116C144.24 0.931999 142.612 0.488 141.132 1.006C139.652 1.524 138.69 2.93 138.69 4.484V40.596C138.69 42.668 140.318 44.296 142.39 44.296C144.462 44.296 146.09 42.668 146.09 40.596V14.696L169.178 42.964C169.918 43.852 170.88 44.296 171.99 44.296C172.434 44.296 172.804 44.222 173.248 44.074Z" fill="#A73962"/>
<path d="M215.402 31.642C215.402 24.612 211.628 20.986 200.75 18.322C194.83 16.842 192.758 15.584 192.758 12.846C192.758 10.108 196.014 8.036 200.158 8.036C204.672 8.036 206.892 10.404 208.89 11.588C210.444 12.55 211.48 12.772 212.886 12.254C214.292 11.736 215.032 10.256 215.032 8.702C215.032 7.962 214.736 7 213.996 6.26C213.33 5.594 208.372 0.783996 200.158 0.783996C191.278 0.783996 185.358 6.038 185.358 13.142C185.358 19.802 189.724 23.132 198.974 25.574C205.486 27.276 208.002 28.682 208.002 31.79C208.002 35.564 204.524 37.044 200.158 37.044C197.05 37.044 193.72 35.712 190.76 32.974C189.798 32.086 188.54 31.272 187.282 31.42C185.432 31.716 183.878 33.64 184.1 35.786C184.248 36.748 184.988 38.672 188.91 41.188C191.056 42.52 195.422 44.296 200.158 44.296C209.852 44.296 215.402 39.412 215.402 31.642ZM221.001 15.436C221.001 21.504 224.849 28.238 232.545 35.342C237.947 40.226 243.201 43.556 243.423 43.704C244.015 44.074 244.755 44.296 245.421 44.296C246.087 44.296 246.827 44.074 247.419 43.704C247.641 43.556 252.895 40.226 258.297 35.342C265.993 28.238 269.841 21.504 269.841 15.436C269.841 7.37 263.551 0.783996 255.781 0.783996C251.711 0.783996 248.011 2.56 245.421 5.446C242.831 2.56 239.131 0.783996 235.061 0.783996C227.291 0.783996 221.001 7.37 221.001 15.436ZM228.401 15.436C228.401 11.44 231.361 8.184 235.061 8.184C238.761 8.184 241.721 11.292 241.721 15.14C241.721 17.212 243.349 18.84 245.421 18.84C247.493 18.84 249.121 17.212 249.121 15.14C249.121 11.292 252.081 8.184 255.781 8.184C259.481 8.184 262.441 11.44 262.441 15.436C262.441 19.21 259.259 24.316 253.339 29.792C250.379 32.53 247.345 34.824 245.421 36.156C243.497 34.824 240.537 32.604 237.577 29.866C231.583 24.39 228.401 19.21 228.401 15.436ZM311.709 44.074C313.189 43.556 314.151 42.15 314.151 40.596V4.484C314.151 2.412 312.523 0.783996 310.451 0.783996C308.379 0.783996 306.751 2.412 306.751 4.484V30.384L283.663 2.116C282.701 0.931999 281.073 0.488 279.593 1.006C278.113 1.524 277.151 2.93 277.151 4.484V40.596C277.151 42.668 278.779 44.296 280.851 44.296C282.923 44.296 284.551 42.668 284.551 40.596V14.696L307.639 42.964C308.379 43.852 309.341 44.296 310.451 44.296C310.895 44.296 311.265 44.222 311.709 44.074ZM361.781 33.566C362.225 32.826 362.299 32.16 362.299 31.272V25.5C362.299 23.428 360.671 21.8 358.599 21.8H347.351C345.279 21.8 343.651 23.428 343.651 25.5C343.651 27.572 345.279 29.2 347.351 29.2H355.343V30.606C353.049 34.38 348.461 36.896 343.207 36.896C335.437 36.896 329.147 30.458 329.147 22.54C329.147 14.622 335.437 8.184 343.207 8.184C348.461 8.184 352.901 11.07 355.417 15.214C356.379 16.99 358.673 17.582 360.449 16.546C362.225 15.51 362.817 13.29 361.781 11.514C358.007 5.076 350.829 0.783996 343.207 0.783996C330.997 0.783996 321.747 10.626 321.747 22.54C321.747 34.454 330.997 44.296 343.207 44.296C350.829 44.296 357.859 39.93 361.781 33.566Z" fill="#C16B89"/>
</svg>
