<svg width="6" height="11" viewBox="0 0 6 11" fill="none" xmlns="http://www.w3.org/2000/svg">
<path d="M4.53884 3.63036C4.33105 3.43555 4.12325 3.2927 3.92845 3.1888C3.73364 3.09789 3.51287 3.04594 3.26611 3.04594C2.9804 3.04594 2.77261 3.11088 2.62975 3.22776C2.48689 3.34464 2.40897 3.53945 2.40897 3.79919C2.40897 3.98101 2.48689 4.14984 2.64274 4.26672C2.79858 4.39659 2.9804 4.51348 3.21416 4.63036C3.44793 4.74724 3.69468 4.86412 3.95442 4.99399C4.21416 5.12386 4.46092 5.26672 4.69468 5.44854C4.92845 5.63036 5.11027 5.83815 5.26611 6.09789C5.42196 6.35763 5.49988 6.66932 5.49988 7.03296C5.49988 7.5914 5.34403 8.07192 5.04533 8.47451C4.74663 8.87711 4.2791 9.13685 3.6817 9.27971V10.5005H2.55183V9.33166C2.21416 9.2927 1.85053 9.20179 1.4739 9.04594C1.09728 8.8901 0.772605 8.69529 0.499878 8.44854L1.25312 7.2927C1.55183 7.51348 1.83754 7.68231 2.09728 7.79919C2.37001 7.91607 2.64274 7.96802 2.91546 7.96802C3.24014 7.96802 3.48689 7.90309 3.62975 7.77322C3.78559 7.64335 3.86351 7.43555 3.86351 7.16283C3.86351 6.95503 3.78559 6.7862 3.62975 6.64335C3.4739 6.50049 3.29209 6.37062 3.05832 6.24075C2.82455 6.11088 2.5778 5.98101 2.31806 5.85114C2.05832 5.72127 1.81157 5.56542 1.5778 5.38361C1.34403 5.20179 1.16222 4.99399 1.00637 4.74724C0.850527 4.50049 0.772605 4.21477 0.772605 3.86412C0.772605 3.2927 0.928449 2.81218 1.24014 2.43555C1.55183 2.05893 1.99338 1.81218 2.53884 1.70828V0.500488H3.66871V1.68231C4.04533 1.73425 4.37001 1.85114 4.65572 2.01997C4.94144 2.1888 5.18819 2.39659 5.42196 2.64335L4.53884 3.63036Z" fill="#333B41"/>
</svg>
