<svg width="161" height="139" viewBox="0 0 161 139" fill="none" xmlns="http://www.w3.org/2000/svg">
<g clip-path="url(#clip0_1_985)">
<path d="M141.161 110.811C147.278 98.9795 152.255 84.471 152.255 69.0085C152.255 61.2415 149.829 52.4123 145.765 45.3911C142.211 39.2515 135.622 31.3193 124.402 28.3948C110.202 24.6942 95.8152 28.1452 84.2549 30.9186C80.0771 31.9208 76.1309 32.8673 72.7508 33.3354C65.1708 34.3843 57.1624 34.2306 50.278 33.9647H50.2735C49.1964 33.923 48.1441 33.8788 47.1283 33.836C42.7788 33.6524 32.7618 33.4762 32.7618 33.4762C32.2151 31.1525 30.9689 29.2487 29.4134 28.3698C28.7544 28.0037 28.0349 27.8181 27.3078 27.8267C26.5807 27.8353 25.8645 28.0378 25.2117 28.4194C23.0721 29.5742 22.0461 32.14 22.5311 35.0367C19.1028 36.7965 15.7536 40.2993 13.7223 43.0537C11.9782 45.4185 10.4993 49.1523 9.06846 52.7631C7.61164 56.4406 6.10545 60.2432 4.59807 61.7787C4.22908 62.1515 3.90275 62.5804 3.62745 63.0543C3.62267 63.0543 3.61788 63.0511 3.61279 63.0501C3.29759 62.9744 2.9726 62.9781 2.65867 63.0609C2.34473 63.1437 2.04879 63.3038 1.78981 63.5308C1.53082 63.7579 1.31453 64.0469 1.15478 64.3794C0.995037 64.7119 0.895373 65.0805 0.862181 65.4616C0.82899 65.8427 0.863003 66.2278 0.962039 66.5923C1.06108 66.9568 1.22295 67.2926 1.43728 67.5782C1.65161 67.8638 1.91366 68.0928 2.20664 68.2507C2.49961 68.4085 2.81704 68.4917 3.13856 68.4948C3.41072 69.5051 3.77831 70.4754 4.23424 71.3869C7.26756 77.6084 12.0659 81.4763 16.2993 84.8882C18.6331 86.7692 20.837 88.546 22.5446 90.5304C23.8256 92.0712 24.9399 93.7968 25.8615 95.6671C25.8717 95.691 25.8852 95.7113 25.8962 95.7345C27.6295 99.1902 29.0044 103.406 29.2611 107.433C29.5857 112.521 30.3538 126.257 30.5952 130.597C29.7611 130.913 28.9786 131.397 28.2818 132.028C27.7633 132.495 27.383 133.146 27.1957 133.888C27.0083 134.63 27.0237 135.423 27.2397 136.154C27.4446 136.899 27.8433 137.548 28.378 138.006C28.9126 138.463 29.5556 138.707 30.214 138.701H44.3921C44.8489 138.701 45.3002 138.583 45.7143 138.353C46.1284 138.123 46.4953 137.788 46.789 137.371C49.9246 132.929 57.7461 121.479 62.6958 111.09C81.8574 111.068 94.9439 110.239 102.577 108.559C103.714 117.124 105.216 126.884 105.765 130.404C105.291 130.668 104.843 130.993 104.429 131.373C103.862 131.894 103.445 132.614 103.239 133.431C103.032 134.248 103.045 135.121 103.276 135.929C103.507 136.737 103.944 137.439 104.526 137.935C105.109 138.432 105.807 138.7 106.523 138.7H119.812C120.599 138.699 121.361 138.377 121.972 137.788C126.355 133.552 134.374 123.876 141.061 111.004C141.098 110.943 141.131 110.878 141.161 110.811ZM47.5068 70.1009C43.2201 80.805 35.6745 89.4637 27.6367 92.9954C26.7138 91.2749 25.6374 89.6785 24.4263 88.2341C22.5461 86.049 20.2452 84.1947 17.8091 82.231C13.6202 78.8541 9.28748 75.3624 6.56353 69.775C4.90535 66.3742 5.5247 65.0573 6.34871 64.218C8.29532 62.2351 9.85417 58.2998 11.5049 54.1329C12.8555 50.7228 14.2522 47.1968 15.7461 45.1721C17.5539 42.7204 20.7688 39.3299 23.8799 37.8432C24.1855 37.6967 24.4603 37.4717 24.6848 37.1844C26.3854 40.1463 30.4361 39.7096 31.4527 37.0125C31.5237 36.8188 31.5762 36.6162 31.6095 36.4086C35.8908 37.0721 42.7127 36.8596 47.0334 37.0428C47.7659 37.0739 48.5211 37.1052 49.2858 37.1359C52.4368 47.6792 51.8153 59.3423 47.5068 70.1009ZM130.129 99.4897C127.619 98.9339 115.16 96.6889 104.711 103.986C104.214 99.9617 103.875 96.6151 103.875 94.9794C103.875 94.5539 103.734 94.1458 103.481 93.845C103.229 93.5441 102.886 93.3751 102.529 93.3751C102.172 93.3751 101.829 93.5441 101.577 93.845C101.324 94.1458 101.183 94.5539 101.183 94.9794C101.183 96.8789 101.59 100.794 102.166 105.387C95.6468 106.838 84.8961 107.646 69.4859 107.838C72.5537 105.618 75 102.432 76.7865 98.2875C79.2744 92.5201 80.3739 85.0058 79.9664 76.5567C79.5075 67.0377 73.3684 54.2159 68.4354 43.9147C67.2928 41.5293 66.1989 39.2443 65.2878 37.2222C67.8822 37.0956 70.491 36.8781 73.0605 36.5223C76.5516 36.0396 80.5511 35.0799 84.7851 34.0624C96.0983 31.3482 110.178 27.9702 123.825 31.5279C142.575 36.4164 149.562 57.1119 149.562 69.0085C149.562 82.7009 145.479 95.6404 140.21 106.512C138.663 103.755 135.44 100.667 130.129 99.4897Z" fill="black"/>
<path d="M18.8955 50.6011C13.4765 48.1059 10.3246 55.1134 13.7733 59.2287C15.6592 61.4778 17.452 66.6896 21.5498 66.2573C28.0602 65.572 27.4607 54.5406 18.8955 50.6011ZM16.4406 57.3812C16.1193 57.3812 15.8051 57.2661 15.5379 57.0506C15.2707 56.835 15.0625 56.5285 14.9395 56.17C14.8165 55.8115 14.7843 55.417 14.847 55.0364C14.9097 54.6558 15.0645 54.3062 15.2917 54.0318C15.5189 53.7574 15.8085 53.5705 16.1237 53.4948C16.4388 53.4191 16.7655 53.458 17.0624 53.6065C17.3593 53.755 17.6131 54.0065 17.7917 54.3291C17.9702 54.6518 18.0655 55.0311 18.0655 55.4192C18.0654 55.9395 17.8942 56.4385 17.5895 56.8064C17.2848 57.1744 16.8716 57.3811 16.4406 57.3812Z" fill="black"/>
<path d="M77.1638 114.161C77.1472 114.082 77.1086 114.012 77.0542 113.962C76.9997 113.912 76.9327 113.886 76.8638 113.886C75.3944 113.905 67.6157 114.001 64.3177 114.016C64.2669 114.016 64.217 114.031 64.1727 114.06C64.1284 114.09 64.0911 114.132 64.0645 114.183C61.9445 118.16 58.2259 124.349 55.7699 128.378C55.7295 128.445 55.7095 128.526 55.7134 128.607C55.7172 128.689 55.7446 128.766 55.791 128.827L59.2228 133.367L59.1861 133.432C59.1739 133.458 59.1587 133.483 59.1464 133.508C58.8787 134.026 58.7327 134.619 58.7233 135.225C58.714 135.832 58.8418 136.43 59.0935 136.959C59.3451 137.488 59.7116 137.928 60.1552 138.234C60.5988 138.541 61.1035 138.702 61.6174 138.701H76.2108C76.5968 138.701 76.9789 138.609 77.3345 138.432C77.6901 138.255 78.0122 137.996 78.2817 137.669C78.5512 137.343 78.7627 136.957 78.9038 136.532C79.0449 136.108 79.1127 135.655 79.1032 135.199C79.0544 132.852 78.9261 129.166 78.6084 125.167C78.3454 121.463 77.8627 117.785 77.1638 114.161Z" fill="black"/>
<path d="M149.114 100.962C149.095 100.893 149.058 100.833 149.01 100.79C148.961 100.747 148.903 100.723 148.843 100.721C148.783 100.719 148.724 100.739 148.674 100.778C148.623 100.818 148.584 100.875 148.561 100.942C148.164 102.115 147.718 103.263 147.225 104.382C143.107 113.749 138.112 122.509 132.34 130.487C132.291 130.554 132.264 130.641 132.266 130.731C132.267 130.82 132.296 130.906 132.347 130.971L133.345 132.249C133.052 132.67 132.806 133.137 132.614 133.636C132.407 134.189 132.319 134.795 132.357 135.4C132.395 136.005 132.559 136.588 132.833 137.095C133.076 137.578 133.416 137.978 133.821 138.259C134.226 138.54 134.683 138.692 135.149 138.702H150.299C150.673 138.702 151.044 138.611 151.388 138.435C151.733 138.258 152.045 138 152.307 137.675C152.568 137.35 152.773 136.965 152.91 136.543C153.047 136.12 153.113 135.669 153.104 135.215C152.954 127.909 152.259 111.718 149.114 100.962Z" fill="black"/>
</g>
<defs>
<clipPath id="clip0_1_985">
<rect width="160.15" height="138.722" fill="white" transform="translate(0.849609 0.27832)"/>
</clipPath>
</defs>
</svg>
