<svg width="87" height="96" viewBox="0 0 87 96" fill="none" xmlns="http://www.w3.org/2000/svg">
<path d="M39.9738 5.26397C39.6243 4.93634 39.2749 4.69607 38.9472 4.52134C38.6196 4.36844 38.2483 4.28107 37.8333 4.28107C37.3527 4.28107 37.0033 4.39028 36.763 4.58686C36.5227 4.78344 36.3917 5.11108 36.3917 5.54792C36.3917 5.85371 36.5227 6.13766 36.7848 6.33424C37.0469 6.55266 37.3527 6.74924 37.7459 6.94582C38.1391 7.1424 38.5541 7.33898 38.9909 7.5574C39.4277 7.77582 39.8428 8.01609 40.2359 8.32188C40.6291 8.62767 40.9349 8.97715 41.197 9.41399C41.4591 9.85083 41.5901 10.375 41.5901 10.9866C41.5901 11.9258 41.328 12.734 40.8256 13.4111C40.3233 14.0882 39.537 14.5251 38.5322 14.7653V16.8185H36.6319V14.8527C36.064 14.7872 35.4525 14.6343 34.819 14.3722C34.1856 14.1101 33.6396 13.7824 33.1809 13.3674L34.4477 11.4235C34.9501 11.7948 35.4306 12.0787 35.8675 12.2753C36.3262 12.4719 36.7848 12.5593 37.2435 12.5593C37.7896 12.5593 38.2046 12.4501 38.4448 12.2316C38.707 12.0132 38.838 11.6637 38.838 11.2051C38.838 10.8556 38.707 10.5716 38.4448 10.3314C38.1827 10.0911 37.877 9.87268 37.4838 9.65425C37.0906 9.43583 36.6756 9.21741 36.2388 8.99899C35.8019 8.78057 35.3869 8.51846 34.9938 8.21267C34.6006 7.90688 34.2948 7.5574 34.0327 7.1424C33.7706 6.7274 33.6396 6.24687 33.6396 5.65713C33.6396 4.69607 33.9017 3.88791 34.4259 3.25449C34.9501 2.62106 35.6927 2.20606 36.6101 2.03132V0H38.5104V1.98764C39.1438 2.07501 39.6899 2.27159 40.1704 2.55554C40.6509 2.83949 41.0659 3.18896 41.4591 3.60396L39.9738 5.26397Z" fill="#333B41"/>
<path fill-rule="evenodd" clip-rule="evenodd" d="M87 76.0006L83.4063 73.7891L75.3895 88.164L79.2597 90.0991L87 76.0006Z" fill="#333B41"/>
<path fill-rule="evenodd" clip-rule="evenodd" d="M81.4708 73.2357C72.0718 62.4546 63.7786 65.219 52.7209 72.4064C43.0455 78.7646 35.858 74.3415 28.6706 77.3824C27.0119 78.2117 24.524 80.1468 26.7355 82.0819C27.8413 82.9112 32.2643 83.7405 33.6465 83.4641C41.1104 81.8054 43.3219 85.1227 54.656 82.9112C51.3387 85.3991 40.5575 83.7405 33.923 84.5698C28.6706 85.6756 20.1009 81.529 27.0119 76.8295C23.9711 75.4473 21.2067 74.6179 17.8894 74.3415C14.5721 71.8535 9.31973 68.8127 6.55532 67.7069C4.3438 66.3247 -1.18502 66.8776 2.40871 70.4713C6.00244 73.7886 15.6779 81.2525 17.613 82.3583C25.3533 87.0578 32.5408 90.3751 40.0047 94.5217C40.0047 94.5217 42.4926 95.9039 47.4686 93.9688C51.0623 92.3102 67.0959 83.4641 70.966 84.8463C73.1776 85.6756 74.2833 86.2285 74.2833 86.2285L81.4708 73.2357Z" stroke="#333B41" stroke-width="1.5"/>
<path fill-rule="evenodd" clip-rule="evenodd" d="M34.7529 72.406C35.3058 71.3003 35.8587 70.471 36.688 70.1945C37.5173 69.9181 37.7938 70.471 38.3467 71.0238C38.8995 71.8532 39.176 72.1296 40.0053 72.6825C40.2817 72.9589 40.8346 72.9589 41.1111 72.9589L40.5582 72.6825C39.7289 72.1296 39.176 71.5767 39.4524 70.471C39.4524 70.1945 39.176 69.6416 39.7289 69.6416C40.2817 69.9181 41.1111 70.471 41.9404 70.471C41.9404 70.471 42.7697 70.7474 42.4933 70.471C42.4933 70.1945 41.9404 69.9181 41.6639 69.6416C40.0053 68.2594 40.0053 67.983 40.0053 66.0479C40.2817 63.2835 39.176 61.072 37.2409 59.1369C32.8178 54.7138 34.7529 48.6321 38.0702 42.8269C41.1111 37.5745 43.8755 36.7452 40.8346 30.387C39.7289 27.6226 37.7938 24.8582 37.5173 23.1996C37.5173 22.6467 37.5173 22.9231 37.5173 23.1996C37.2409 24.8582 38.3467 27.3462 39.4524 29.8342C41.9404 35.363 41.3875 35.9159 37.7938 40.8918C33.9236 45.8677 31.1592 51.1201 32.8178 56.6489C33.9236 60.5191 39.4524 64.3893 36.688 66.8772C35.3058 67.983 33.3707 70.7474 33.0943 72.406C32.8178 73.2354 32.8178 73.2354 32.5414 73.7882C32.265 74.0647 32.5414 74.0647 32.8178 74.0647C34.2 73.7882 34.2 73.2354 34.7529 72.406Z" fill="#333B41"/>
<mask id="path-5-inside-1_201_345" fill="white">
<path d="M41.1106 62.178C48.0216 62.178 53.5504 53.3319 53.274 47.2502C45.5336 49.4617 41.1106 51.6732 40.2813 54.9905C39.7284 56.6492 40.0048 57.7549 41.387 58.0314C42.2163 57.7549 44.4279 54.1612 48.5745 52.5026C44.9808 55.8198 44.4279 57.7549 41.387 60.5193H41.1106C40.0048 59.9665 38.8991 59.1371 38.6226 58.0314C38.0697 56.9256 38.0697 55.5434 38.3462 54.1612C39.4519 51.1203 42.4928 48.6324 47.7452 46.6973C50.5096 45.868 52.9975 44.7622 55.7619 44.7622C54.6562 50.8439 53.8269 55.8198 50.2331 59.69C45.8101 64.1131 41.387 62.178 41.1106 62.178Z"/>
</mask>
<path d="M41.1106 62.178C48.0216 62.178 53.5504 53.3319 53.274 47.2502C45.5336 49.4617 41.1106 51.6732 40.2813 54.9905C39.7284 56.6492 40.0048 57.7549 41.387 58.0314C42.2163 57.7549 44.4279 54.1612 48.5745 52.5026C44.9808 55.8198 44.4279 57.7549 41.387 60.5193H41.1106C40.0048 59.9665 38.8991 59.1371 38.6226 58.0314C38.0697 56.9256 38.0697 55.5434 38.3462 54.1612C39.4519 51.1203 42.4928 48.6324 47.7452 46.6973C50.5096 45.868 52.9975 44.7622 55.7619 44.7622C54.6562 50.8439 53.8269 55.8198 50.2331 59.69C45.8101 64.1131 41.387 62.178 41.1106 62.178Z" stroke="#333B41" stroke-width="3" mask="url(#path-5-inside-1_201_345)"/>
<mask id="path-6-inside-2_201_345" fill="white">
<path d="M33.9233 41.168C27.8416 41.4445 23.1421 33.7041 23.4185 28.4518C30.0531 30.3868 33.9233 32.3219 34.7526 35.0863C35.3055 36.4685 34.7526 37.5743 33.6468 37.8507C32.8175 37.5743 30.8824 34.5335 27.2887 33.1513C30.606 35.9157 31.1589 37.5743 33.6468 40.0623L33.9233 39.7858C35.029 39.5094 35.8584 38.9565 36.1348 37.8507C36.6877 36.745 36.6877 35.6392 36.1348 34.5335C35.3055 31.7691 32.8175 29.5575 28.118 28.1753C25.6301 27.346 23.695 26.5167 21.207 26.2402C22.3128 31.4926 22.8656 35.9157 26.1829 39.233C29.7767 43.1031 33.6468 41.4445 33.9233 41.168Z"/>
</mask>
<path d="M33.9233 41.168C27.8416 41.4445 23.1421 33.7041 23.4185 28.4518C30.0531 30.3868 33.9233 32.3219 34.7526 35.0863C35.3055 36.4685 34.7526 37.5743 33.6468 37.8507C32.8175 37.5743 30.8824 34.5335 27.2887 33.1513C30.606 35.9157 31.1589 37.5743 33.6468 40.0623L33.9233 39.7858C35.029 39.5094 35.8584 38.9565 36.1348 37.8507C36.6877 36.745 36.6877 35.6392 36.1348 34.5335C35.3055 31.7691 32.8175 29.5575 28.118 28.1753C25.6301 27.346 23.695 26.5167 21.207 26.2402C22.3128 31.4926 22.8656 35.9157 26.1829 39.233C29.7767 43.1031 33.6468 41.4445 33.9233 41.168Z" stroke="#333B41" stroke-width="3" mask="url(#path-6-inside-2_201_345)"/>
<mask id="path-7-inside-3_201_345" fill="white">
<path d="M44.1509 31.4932C49.1269 31.4932 53.2735 25.1351 53.2735 20.4356C47.1918 22.0942 44.1509 23.7529 43.3216 26.2408C43.0452 27.3466 43.3216 28.1759 44.1509 28.4524C44.9803 28.4524 46.6389 25.6879 49.6798 24.3057C46.9153 26.7937 46.3625 28.1759 44.1509 30.3874C43.0452 30.111 42.4923 29.2817 42.2159 28.4524C41.663 27.623 41.663 26.5173 41.9394 25.6879C42.7687 23.2 44.9803 21.5413 48.8504 20.1591C51.062 19.3298 52.997 18.7769 54.9321 18.5005C54.1028 22.9235 53.5499 26.7937 50.7855 29.8346C47.4682 33.1519 44.1509 31.4932 44.1509 31.4932Z"/>
</mask>
<path d="M44.1509 31.4932C49.1269 31.4932 53.2735 25.1351 53.2735 20.4356C47.1918 22.0942 44.1509 23.7529 43.3216 26.2408C43.0452 27.3466 43.3216 28.1759 44.1509 28.4524C44.9803 28.4524 46.6389 25.6879 49.6798 24.3057C46.9153 26.7937 46.3625 28.1759 44.1509 30.3874C43.0452 30.111 42.4923 29.2817 42.2159 28.4524C41.663 27.623 41.663 26.5173 41.9394 25.6879C42.7687 23.2 44.9803 21.5413 48.8504 20.1591C51.062 19.3298 52.997 18.7769 54.9321 18.5005C54.1028 22.9235 53.5499 26.7937 50.7855 29.8346C47.4682 33.1519 44.1509 31.4932 44.1509 31.4932Z" stroke="#333B41" stroke-width="3" mask="url(#path-7-inside-3_201_345)"/>
</svg>
