<?xml version="1.0" standalone="no"?>
<!DOCTYPE svg PUBLIC "-//W3C//DTD SVG 20010904//EN"
 "http://www.w3.org/TR/2001/REC-SVG-20010904/DTD/svg10.dtd">
<svg version="1.0" xmlns="http://www.w3.org/2000/svg"
 width="164.000000pt" height="164.000000pt" viewBox="0 0 164.000000 164.000000"
 preserveAspectRatio="xMidYMid meet">
<metadata>
Created by potrace 1.14, written by Peter Selinger 2001-2017
</metadata>
<g transform="translate(0.000000,164.000000) scale(0.100000,-0.100000)"
fill="#000000" stroke="none">
<path d="M1047 1615 c-33 -13 -68 -32 -80 -42 -194 -163 -178 -348 52 -602
119 -132 162 -192 191 -269 43 -113 9 -189 -75 -168 -31 8 -68 63 -95 140 -85
248 -302 375 -538 315 -40 -10 -108 -37 -150 -60 -42 -23 -97 -52 -121 -65
-47 -25 -99 -30 -163 -15 l-37 9 3 -127 c9 -297 137 -502 394 -631 181 -91
444 -118 705 -75 267 45 468 250 469 480 2 180 -81 320 -292 495 -150 124
-217 201 -245 281 -34 96 36 179 124 148 37 -13 43 -28 46 -110 2 -37 8 -77
15 -90 16 -30 146 -156 183 -175 26 -14 27 -13 27 8 0 13 -11 40 -24 59 l-25
36 24 23 c85 80 63 236 -50 353 -95 97 -224 129 -338 82z"/>
</g>
</svg>
