<?xml version="1.0" encoding="UTF-8" standalone="no"?>
<svg width="28px" height="24px" viewBox="0 0 28 24" version="1.1" xmlns="http://www.w3.org/2000/svg" xmlns:xlink="http://www.w3.org/1999/xlink">
    <!-- Generator: Sketch 44.1 (41455) - http://www.bohemiancoding.com/sketch -->
    <title>volume 3</title>
    <desc>Created with Sketch.</desc>
    <defs></defs>
    <g id="Page-2-Copy" stroke="none" stroke-width="1" fill="none" fill-rule="evenodd">
        <g id="246" stroke="#ffffff" transform="translate(0.000000, -4.000000)" fill-rule="nonzero">
            <path d="M5.48917603,22 C5.55217314,22.0492379 5.61624045,22.0950527 5.68118391,22.1370864 L14.3188161,27.7276617 C15.2473083,28.3286141 16,27.9187626 16,26.815621 L16,5.18986777 C16,4.08520919 15.2493463,3.67556599 14.3188161,4.27785027 L5.68118391,9.86854489 C5.61877503,9.90893894 5.55716039,9.95286526 5.49651519,10 L1.99791312,10 C0.894496173,10 0,10.9019504 0,12.0085302 L0,19.9914698 C0,21.1007504 0.898260623,22 1.99791312,22 L5.48917603,22 L5.48917603,22 L5.48917603,22 Z M15.4055431,5.9568453 C15.0049958,6.21609895 14,5.66990151 14,5.18986777 L14,26.815621 C14,26.3334429 15.0034741,25.7884337 15.4055268,26.0486561 L6.76789462,20.4580808 C6.40692847,20.224451 6,19.4780451 6,19.0550566 L6,12.9505979 C6,12.5303144 6.40914716,11.7797493 6.76791096,11.5475399 L15.4055431,5.9568453 L15.4055431,5.9568453 Z M6,12 L4,10 L4,22 L6,20 L1.99791312,20 C2.00332451,20 2,12.0085302 2,12.0085302 C2,12.0028082 6,12 6,12 L6,12 L6,12 Z" id="Rectangle-1164" stroke="none" fill="#ffffff"></path>
            <path d="M18,10.0829584 C20.8377133,10.5590365 23,13.0270037 23,16 C23,18.9729963 20.8377133,21.4409635 18,21.9170416 L18,19.8739825 C19.7252272,19.4299397 21,17.8638394 21,16 C21,14.1361606 19.7252272,12.5700603 18,12.1260175 L18,10.0829584 L18,10.0829584 Z M18,5.04484302 C23.6065,5.55007179 28,10.2619574 28,16 C28,21.7380426 23.6065,26.4499282 18,26.955157 L18,24.9450712 C22.4999505,24.4476269 26,20.6325537 26,16 C26,11.3674463 22.4999505,7.55237307 18,7.05492878 L18,5.04484302 L18,5.04484302 Z" id="Oval-90" stroke="none" fill="#ffffff"></path>
        </g>
    </g>
</svg>